<?xml version="1.0" standalone="no"?>
<!DOCTYPE svg PUBLIC "-//W3C//DTD SVG 20010904//EN"
 "http://www.w3.org/TR/2001/REC-SVG-20010904/DTD/svg10.dtd">
<svg version="1.0" xmlns="http://www.w3.org/2000/svg"
 width="1080.000000pt" height="1080.000000pt" viewBox="0 0 1080.000000 1080.000000"
 preserveAspectRatio="xMidYMid meet">

<g transform="translate(0.000000,1080.000000) scale(0.100000,-0.100000)"
fill="#000000" stroke="none">
<path d="M2010 6156 c-109 -30 -204 -106 -248 -198 -27 -54 -33 -60 -87 -77
-133 -42 -245 -204 -245 -355 0 -70 30 -163 71 -221 26 -37 28 -43 18 -85 -26
-109 20 -258 106 -346 72 -73 210 -123 304 -110 37 5 51 2 67 -12 39 -36 113
-82 133 -82 11 0 23 -4 26 -10 8 -14 187 -13 222 1 112 45 189 113 231 202 15
32 30 48 54 57 126 47 209 125 246 230 42 122 27 253 -42 355 -18 25 -21 46
-21 145 0 110 -2 118 -33 182 -67 137 -184 209 -345 213 -79 2 -91 5 -115 28
-55 52 -183 98 -265 96 -18 0 -52 -6 -77 -13z m220 -111 c25 -12 45 -28 45
-35 0 -13 -53 -50 -165 -112 -25 -14 -63 -35 -85 -48 -79 -44 -75 -28 -75
-271 0 -128 -4 -220 -10 -224 -5 -3 -36 11 -70 32 l-60 38 0 205 c0 207 4 235
42 305 68 125 244 176 378 110z m311 -96 c124 -40 189 -110 219 -236 12 -54 7
-93 -13 -93 -7 0 -28 10 -47 22 -33 20 -55 33 -134 77 -19 11 -52 31 -73 44
-75 47 -72 48 -228 -43 -22 -12 -60 -34 -85 -48 -25 -13 -49 -28 -55 -32 -25
-19 -87 -50 -101 -50 -12 0 -14 14 -12 76 l3 76 40 23 c37 21 128 73 203 116
85 49 104 59 134 68 46 13 109 13 149 0z m-821 -333 c0 -96 4 -185 9 -199 6
-16 52 -48 148 -103 141 -80 176 -100 208 -120 21 -13 14 -41 -12 -51 -10 -3
-30 -15 -45 -25 -40 -28 -56 -26 -128 18 -91 54 -117 69 -185 106 -72 39 -136
101 -165 158 -30 58 -30 189 0 253 30 64 111 136 153 137 16 0 17 -15 17 -174z
m793 30 c43 -25 80 -46 82 -46 12 0 152 -95 168 -114 33 -37 64 -100 77 -152
26 -115 -63 -284 -163 -309 l-27 -7 0 183 c-1 200 -1 203 -60 237 -35 20 -136
78 -197 113 -18 11 -50 28 -70 40 -52 28 -69 47 -58 58 6 6 35 23 64 40 62 34
49 37 184 -43z m-286 -67 c21 -11 59 -34 86 -51 l47 -30 0 -83 c0 -46 -3 -90
-6 -99 -8 -20 -145 -96 -173 -96 -12 0 -39 11 -61 25 -22 14 -42 25 -46 25 -3
0 -19 9 -35 21 -29 20 -29 22 -29 118 l0 98 58 31 c31 17 66 38 77 46 27 20
38 20 82 -5z m263 -153 l55 -32 3 -215 c3 -251 -5 -283 -86 -360 -60 -58 -131
-89 -200 -89 -42 0 -132 31 -159 54 l-27 23 90 53 c82 49 107 63 175 102 71
40 69 31 69 252 0 191 4 246 19 246 3 -1 31 -16 61 -34z m-130 -282 c0 -73 5
-67 -129 -142 -25 -14 -73 -41 -106 -61 -113 -68 -148 -81 -229 -81 -92 0
-149 23 -210 83 -49 49 -86 134 -86 198 0 64 8 62 185 -41 177 -104 160 -101
264 -39 34 22 64 39 66 39 2 0 39 21 82 47 118 70 147 83 155 70 4 -7 8 -39 8
-73z"/>
<path d="M5923 5830 c-28 -12 -43 -40 -43 -84 0 -68 90 -101 145 -53 34 28 37
89 8 119 -22 22 -79 32 -110 18z"/>
<path d="M3222 5782 l-62 -3 2 -402 3 -402 75 0 75 0 3 401 c3 458 13 411 -96
406z"/>
<path d="M7848 5784 c-10 -3 -18 -6 -18 -7 0 -1 -30 -87 -66 -192 -36 -104
-76 -224 -90 -265 -14 -41 -29 -84 -34 -95 -17 -39 -80 -228 -80 -241 0 -11
17 -14 70 -14 77 0 77 0 105 86 9 27 21 61 27 77 l11 27 160 -2 161 -3 31 -90
32 -90 76 -3 c42 -2 77 0 77 3 0 7 -66 204 -170 505 -45 129 -86 250 -91 268
-8 26 -15 32 -38 32 -15 0 -55 2 -87 4 -32 3 -67 3 -76 0z m146 -317 c25 -76
46 -147 46 -158 0 -18 -8 -19 -110 -19 -94 0 -110 2 -110 16 0 9 18 69 40 134
22 65 40 125 40 133 0 20 31 51 40 40 4 -4 29 -70 54 -146z"/>
<path d="M8457 5783 c-4 -3 -7 -188 -7 -410 l0 -404 73 3 72 3 3 401 2 401
-31 7 c-41 8 -104 8 -112 -1z"/>
<path d="M5630 5630 c-17 -52 -32 -65 -59 -51 -11 6 -53 11 -95 11 -168 0
-254 -92 -231 -246 5 -37 15 -54 51 -88 l44 -43 -40 -27 c-23 -15 -45 -38 -50
-51 -12 -33 -2 -80 21 -101 26 -24 24 -40 -8 -52 -106 -37 -108 -177 -3 -232
110 -58 336 -52 431 13 54 37 73 71 77 141 9 135 -67 186 -278 186 -82 0 -120
16 -120 50 0 33 38 50 116 50 87 0 129 16 177 69 55 61 61 152 16 227 l-18 30
39 38 c28 26 40 46 40 66 0 24 -5 29 -44 39 -25 6 -47 11 -49 11 -2 0 -10 -18
-17 -40z m-81 -166 c40 -51 35 -124 -13 -163 -24 -20 -102 -17 -126 4 -42 38
-44 122 -4 166 13 14 31 19 70 19 45 0 56 -4 73 -26z m26 -508 c74 -22 68 -99
-10 -132 -77 -32 -217 -7 -236 43 -14 37 -11 52 16 78 22 23 32 25 107 24 46
0 101 -6 123 -13z"/>
<path d="M3562 5583 l-42 -4 2 -302 3 -302 64 -3 c45 -2 67 1 72 10 5 7 9 100
9 206 0 208 5 233 54 266 38 24 118 22 142 -5 17 -19 19 -43 24 -248 l5 -226
70 0 70 0 5 205 c5 217 8 232 56 269 38 30 113 29 142 -2 21 -22 22 -33 24
-247 l3 -225 70 0 70 0 0 250 c0 234 -1 252 -21 285 -34 59 -76 80 -158 80
-79 0 -119 -18 -169 -74 l-27 -31 -16 22 c-49 68 -77 83 -160 83 -53 0 -76 -5
-109 -25 -24 -13 -45 -31 -49 -40 -10 -28 -36 -17 -36 15 0 24 -6 33 -26 40
-14 6 -26 9 -27 8 -1 -1 -21 -3 -45 -5z"/>
<path d="M4710 5578 c-97 -41 -130 -66 -130 -95 0 -10 12 -34 28 -52 l27 -33
39 31 c46 37 73 46 142 46 77 0 113 -41 84 -95 -10 -19 -60 -37 -170 -60 -68
-15 -131 -50 -156 -87 -27 -42 -25 -149 4 -191 42 -58 75 -74 155 -75 82 0
109 10 153 61 l30 35 22 -35 c26 -42 58 -58 117 -58 64 0 75 7 75 47 0 43 -16
73 -38 73 -38 0 -42 19 -42 194 -1 158 -2 174 -23 215 -35 67 -87 91 -202 90
-49 0 -101 -5 -115 -11z m200 -364 c0 -95 -42 -144 -123 -144 -56 0 -89 32
-89 85 0 45 20 68 75 84 23 7 60 18 82 25 22 8 43 11 48 9 4 -2 7 -29 7 -59z"/>
<path d="M6278 5582 l-48 -3 0 -305 0 -304 70 0 70 0 0 173 c0 206 12 262 64
302 48 36 132 36 167 -1 24 -25 24 -30 29 -247 l5 -222 70 0 70 0 3 200 c3
210 -6 290 -39 344 -58 96 -260 96 -330 1 -27 -36 -39 -30 -39 19 0 44 -10 48
-92 43z"/>
<path d="M7104 5576 c-119 -44 -184 -150 -184 -302 0 -131 54 -229 154 -277
51 -25 70 -29 150 -29 61 0 104 6 129 16 39 17 117 90 117 110 0 6 -21 24 -47
39 l-46 28 -33 -32 c-61 -60 -178 -59 -235 2 -28 30 -47 95 -32 110 5 5 96 10
203 11 l195 3 -2 87 c-3 125 -44 193 -140 233 -42 18 -183 18 -229 1z m157
-100 c47 -20 67 -44 75 -94 l7 -42 -132 0 -131 0 0 25 c0 43 27 81 72 103 52
25 65 26 109 8z"/>
<path d="M5900 5275 l0 -305 70 0 70 0 0 305 0 305 -70 0 -70 0 0 -305z"/>
</g>
</svg>
